<svg viewBox="0 0 1080 1080" fill="none" xmlns="http://www.w3.org/2000/svg">      <defs>  <filter id="filter" x="-20%" y="-20%" width="140%" height="140%" filterUnits="objectBoundingBox" primitiveUnits="userSpaceOnUse" color-interpolation-filters="linearRGB">    <feMorphology operator="dilate" radius="20 20" in="SourceAlpha" result="morphology"/>    <feFlood flood-color="#ffffff" flood-opacity="1" result="flood"/>    <feComposite in="flood" in2="morphology" operator="in" result="composite"/>    <feMerge result="merge">          <feMergeNode in="composite" result="mergeNode"/>      <feMergeNode in="SourceGraphic" result="mergeNode1"/>      </feMerge>  </filter></defs>      <g id="notion-avatar" filter="url(#filter)">        <g id="notion-avatar-face" fill="#ffffff">      <!--?xml version="1.0" encoding="UTF-8"?-->    <title>Face/ 9</title>    <g id="Face/-9" stroke="none" stroke-width="1" fill-rule="evenodd" stroke-linecap="round" stroke-linejoin="round">        <path d="M532,379 C664.54834,379 772,486.45166 772,619 C772,751.54834 704.54834,919 592,919 C506.683174,919 378.324367,822.776611 321.205121,718.475443 C318.188736,718.821948 315.115161,719 312,719 C267.81722,719 232,683.18278 232,639 C232,599.134956 261.158843,566.080325 299.312086,560.00055 C325.599297,455.979213 419.809919,379 532,379 Z M295.858895,624.545187 L304.141105,655.454813" id="Path" stroke="#000000" stroke-width="24"/>    </g>    </g><g id="notion-avatar-nose">      <!--?xml version="1.0" encoding="UTF-8"?-->    <title>Nose/ 10</title>    <g id="Nose/-10" stroke="none" stroke-width="1" fill="none" fill-rule="evenodd" stroke-linecap="round" stroke-linejoin="round">        <path d="M631,694.380659 C660.333333,687.46022 678,677.333333 684,664 C693,644 637.033407,606.392531 660.161467,579" id="Path" stroke="#000000" stroke-width="16"/>    </g>    </g><g id="notion-avatar-mouth">      <g id="Mouth/ 11"><path id="Path" fill-rule="evenodd" clip-rule="evenodd" d="M529 741C529 741 595 755 627 755C659 755 689 745.528 689 745.528C689 745.528 688 814 618 814C548 814 529 741 529 741Z" stroke="black" stroke-width="16" stroke-linecap="round" stroke-linejoin="round"/></g>    </g><g id="notion-avatar-eyes">      <!--?xml version="1.0" encoding="UTF-8"?-->    <title>Eyes/ 0</title>    <g id="Eyes/-0" stroke="none" stroke-width="1" fill="none" fill-rule="evenodd">        <path d="M570,516 C583.254834,516 594,526.745166 594,540 C594,553.254834 583.254834,564 570,564 C556.745166,564 546,553.254834 546,540 C546,526.745166 556.745166,516 570,516 Z M708,516 C721.254834,516 732,526.745166 732,540 C732,553.254834 721.254834,564 708,564 C694.745166,564 684,553.254834 684,540 C684,526.745166 694.745166,516 708,516 Z" id="Combined-Shape" fill="#000000"/>    </g>    </g><g id="notion-avatar-eyebrows">      <!--?xml version="1.0" encoding="UTF-8"?-->    <title>Eyebrows/ 2</title>    <g id="Eyebrows/-2" stroke="none" stroke-width="1" fill="none" fill-rule="evenodd" stroke-linecap="round" stroke-linejoin="round">        <path d="M570,485.718496 C590.574398,488.795594 605.574398,494.964927 615,504.226493 C600,498.618009 585,495.813767 570,495.813767 C555,495.813767 536.666667,498.618009 515,504.226493 L525,490.766132 C534.425602,484.323943 549.425602,482.641398 570,485.718496 Z M708,485.718496 C728.574398,482.641398 743.574398,484.323943 753,490.766132 L753,490.766132 L763,504.226493 C741.333333,498.618009 723,495.813767 708,495.813767 C693,495.813767 678,498.618009 663,504.226493 C672.425602,494.964927 687.425602,488.795594 708,485.718496 Z" id="Combined-Shape" stroke="#000000" stroke-width="16" fill="#000000"/>    </g>    </g><g id="notion-avatar-glasses">      <!--?xml version="1.0" encoding="UTF-8"?-->    <title>Glasses/ 1</title>    <g id="Glasses/-1" stroke="none" stroke-width="1" fill="none" fill-rule="evenodd" stroke-linecap="round" stroke-linejoin="round">        <g id="Group" transform="translate(293.311103, 479.000000)" stroke="#000000" stroke-width="16">            <circle id="Oval" cx="272.688897" cy="60" r="60"/>            <circle id="Oval" cx="416.688897" cy="60" r="60"/>            <path d="M368.688897,13 C360.688897,7.66666667 352.688897,5 344.688897,5 C336.688897,5 328.688897,7.66666667 320.688897,13" id="Path"/>            <line x1="216.688897" y1="36" x2="1" y2="79.3393577" id="Path" transform="translate(108.844448, 57.669679) rotate(1.361411) translate(-108.844448, -57.669679) "/>        </g>    </g>    </g><g id="notion-avatar-hair">      <g id="Hairstyle/ 40"><path id="Path" fill-rule="evenodd" clip-rule="evenodd" d="M639 277.308C667.43 286.446 696 298 704 336C710.842 368.499 711 378 689 446C682.333 430.667 649.333 422 590 420C561.16 419.028 528.044 403.964 495 406C470.467 407.511 431.899 420.685 379.296 445.522L380.068 448.707C388.266 482.685 392.365 505.363 392.365 516.739C392.365 527.77 384.591 569.192 369.044 641.005L366 655L328.117 564.825H287.146C271.78 507.747 268.106 468.653 276.123 447.542C284.14 426.431 296.099 411.251 312 402C331 367 470.357 328.33 494.118 324.238C495.772 323.953 497.385 323.709 498.959 323.505L500.461 322.624C508.552 317.838 513.95 313.985 519.924 310.186C492.292 313.158 451.984 326.133 399.002 349.111C446.763 317.858 490.246 301.828 529.453 301.02C531.82 300.971 534.136 300.973 536.402 301.026C538.424 300.055 540.611 299.049 543 298C548.899 295.41 556.081 293.379 564.106 291.94C536.526 289.839 492.546 297.699 432.166 315.521C483.379 290.323 528.492 279.711 567.505 283.687C577.797 284.736 587.013 286.631 595.151 289.371C618.568 289.36 644.007 293.263 664.64 301.589C657.176 294.844 648.63 289.751 639 286.308C613.258 277.105 566.925 275.105 500 280.308C555.333 266.308 601.667 265.308 639 277.308Z" fill="black" stroke="black" stroke-width="12" stroke-linecap="round" stroke-linejoin="round"/></g>    </g><g id="notion-avatar-accessories">      <!--?xml version="1.0" encoding="UTF-8"?-->    <title>Accessories/ 0</title>    <g id="Accessories/-0" stroke="none" stroke-width="1" fill="none" fill-rule="evenodd"/>    </g><g id="notion-avatar-details">      <!--?xml version="1.0" encoding="UTF-8"?-->    <title>Details/ 0</title>    <g id="Details/-0" stroke="none" stroke-width="1" fill="none" fill-rule="evenodd"/>    </g><g id="notion-avatar-beard">      <!--?xml version="1.0" encoding="UTF-8"?-->    <title>Beard/ 0</title>    <g id="Beard/-0" stroke="none" stroke-width="1" fill="none" fill-rule="evenodd"/>    </g>      </g>      </svg>